<svg xmlns="http://www.w3.org/2000/svg" viewBox="0 0 860.02 481.04"><defs><style>.cls-1{fill:#606161;opacity:0.4;}</style></defs><g id="Layer_2" data-name="Layer 2"><g id="_303mm_x_216mm" data-name="303mm x 216mm"><path class="cls-1" d="M189.68,481l-.14-1.41a100.8,100.8,0,0,1,14.44-.31c1.34.06,2.69.17,4,.31l-.16,1.41c-1.27-.14-2.59-.24-3.91-.3A99.27,99.27,0,0,0,189.68,481Zm17.12-7.87a81.4,81.4,0,0,1,30.94,7.8l.6-1.28a82.79,82.79,0,0,0-31.46-7.94,98.08,98.08,0,0,0-45.38,7.93l.58,1.3C175.65,474.94,190.69,472.31,206.8,473.17Zm49,6.56c-15.25-9.75-29.86-14.69-46-15.56-22.93-1.25-44.3,4.12-61.82,15.57l.78,1.19c17.26-11.28,38.34-16.59,61-15.34,15.88.85,30.27,5.72,45.31,15.34Zm14.95,0c-19.95-14.89-37.85-22-58-23.16-28.9-1.65-54.84,6.36-75,23.19l.9,1.09c19.92-16.6,45.52-24.52,74.05-22.86,19.9,1.11,37.56,8.16,57.28,22.88Zm13.93,0c-18.38-15-39.47-29-69.08-30.76-34-2-64.76,8.93-86.56,30.81l1,1c21.51-21.58,51.86-32.37,85.48-30.39,29.21,1.69,50.07,15.63,68.26,30.44Zm13.41,0c-25.34-21.68-48.57-36.49-79.59-38.34-39.38-2.4-73.86,11.25-97.09,38.42l1.08.92c22.93-26.82,57-40.29,95.93-37.92,22.14,1.31,44,8.28,78.75,38Zm13.2,0c-27.13-23.78-52.62-43.65-89.9-45.93-44-2.74-82.95,14-106.9,46l1.14.85c23.65-31.61,62.18-48.18,105.68-45.47,36.83,2.24,62.11,22,89,45.57Zm13.06,0c-33.61-29.77-60.46-51-100.06-53.5-49.13-3.13-91.49,16.42-116.19,53.64l1.18.78c24.42-36.79,66.3-56.1,114.92-53,39.15,2.44,65.82,23.56,99.21,53.14Zm13.07,0L335.33,478c-34.2-30.28-63.74-56.43-108.18-59.26-27.82-1.8-53.25,3.13-75.57,14.65A123.67,123.67,0,0,0,102.05,480l1.22.72a122.13,122.13,0,0,1,49-46.06c22.09-11.41,47.26-16.28,74.82-14.49,44,2.8,73.33,28.8,107.34,58.9l2.05,1.82Zm13.11,0-8.22-7.24C306.8,441.21,276.16,414.14,230,411.15,171.56,407.29,121.6,433,96.37,480l1.25.67c25-46.46,74.43-71.92,132.32-68.1,45.64,2.95,76.11,29.87,111.39,61.05,2.71,2.39,5.44,4.81,8.22,7.24Zm13.15,0c-4.94-4.29-9.78-8.56-14.46-12.69-36.73-32.4-68.45-60.39-116.24-63.54-32.29-2.16-62.67,4.28-87.85,18.64A133.85,133.85,0,0,0,90.93,480l1.28.62a132.37,132.37,0,0,1,53.58-57.2c24.94-14.22,55-20.6,87.05-18.45,47.32,3.11,78.87,30.95,115.4,63.19,4.68,4.13,9.53,8.4,14.48,12.69Zm13.26,0c-7.19-6.12-14.09-12.2-20.77-18.08-38-33.49-70.82-62.4-120.3-65.71-34.7-2.35-67.17,4.79-93.87,20.65A139,139,0,0,0,85.72,480l1.3.58a137.5,137.5,0,0,1,55.66-62.75c26.46-15.72,58.64-22.79,93-20.45,49,3.27,81.66,32,119.46,65.35,6.68,5.89,13.59,12,20.79,18.1Zm13.35,0c-9.52-8-18.48-15.84-27.15-23.48-39.28-34.57-73.19-64.42-124.37-67.89-72.45-5-133,30.15-158.06,91.64l1.32.54c24.8-60.91,84.82-95.68,156.64-90.76,50.7,3.43,84.45,33.14,123.53,67.54,8.68,7.64,17.65,15.54,27.19,23.5Zm13.49,0c-11.95-9.76-23-19.47-33.67-28.86-40.55-35.65-75.57-66.45-128.45-70.07-39.48-2.74-76.05,5.81-105.74,24.71a149.57,149.57,0,0,0-60.09,74.52l1.32.5a148.2,148.2,0,0,1,59.53-73.82c29.43-18.75,65.7-27.22,104.88-24.49,52.4,3.59,87.26,34.23,127.61,69.72,10.69,9.39,21.74,19.11,33.71,28.89Zm13.58,0c-14.47-11.56-27.59-23.08-40.27-34.23-41.82-36.75-77.95-68.5-132.53-72.28-41.87-2.93-80.46,6.32-111.61,26.76A154.83,154.83,0,0,0,71,480.1l1.34.46a153.33,153.33,0,0,1,61.31-79.34c30.88-20.27,69.18-29.45,110.73-26.53,54.11,3.74,90.06,35.34,131.7,71.93,12.69,11.15,25.82,22.69,40.32,34.27Zm13.71,0c-17.09-13.33-32.28-26.67-47-39.57-43.12-37.86-80.35-70.57-136.65-74.51-44.24-3.13-84.85,6.84-117.43,28.82-30.4,20.5-52.39,50.11-63.59,85.61l1.36.42a158.82,158.82,0,0,1,63-84.86c32.32-21.8,72.61-31.67,116.54-28.57,55.82,3.9,92.89,36.46,135.81,74.16,14.71,12.91,29.92,26.27,47,39.62Zm13.87,0c-19.83-15.09-37.12-30.26-53.83-44.93-44.41-39-82.75-72.63-140.77-76.72-46.62-3.32-89.23,7.35-123.23,30.87a167.84,167.84,0,0,0-65.22,91.14l1.36.4a166.4,166.4,0,0,1,64.66-90.37c33.74-23.34,76-33.93,122.33-30.62,57.54,4,95.72,37.56,139.93,76.37,16.74,14.68,34,29.87,53.91,45Zm14,0c-22.65-16.81-42-33.81-60.77-50.26-45.69-40.08-85.15-74.7-144.89-79-49-3.52-93.59,7.87-129,32.94a173.29,173.29,0,0,0-66.8,96.67l1.37.37A171.79,171.79,0,0,1,125,384.64c35.14-24.88,79.43-36.19,128.09-32.68,59.26,4.22,98.55,38.69,144.06,78.61C415.92,447,435.32,464.05,458,480.9Zm14.08,0c-25.56-18.51-47-37.35-67.81-55.57-47-41.21-87.58-76.8-149-81.22-51.34-3.72-97.94,8.39-134.75,35A178.68,178.68,0,0,0,53,480.16l1.38.34a177.25,177.25,0,0,1,67.76-101.37C158.71,352.71,205,340.7,256,344.39c61,4.37,101.4,39.82,148.2,80.87,20.8,18.23,42.31,37.09,67.91,55.65Zm14.21,0c-28.57-20.19-52.15-40.87-75-60.88C363.9,376.53,322.19,340,259,335.39c-53.71-3.91-102.29,8.91-140.49,37.1-35.13,25.92-59.91,64.16-69.78,107.68l1.38.32c9.8-43.19,34.39-81.14,69.25-106.86,37.92-28,86.17-40.72,139.54-36.82,62.72,4.53,104.26,40.95,152.36,83.13,22.84,20,46.46,40.74,75.08,61Zm14.34,0c-31.68-21.85-57.4-44.39-82.26-66.19-49.59-43.48-92.42-81-157.35-85.74-56.06-4.11-106.61,9.43-146.18,39.18C79.3,394.36,54,434.56,44.49,480.19l1.38.29c9.46-45.29,34.56-85.19,70.68-112.35,39.29-29.54,89.51-43,145.23-38.89,64.45,4.68,107.11,42.08,156.51,85.38,24.9,21.83,50.65,44.4,82.4,66.29Zm14.45,0c-34.87-23.47-64-49-89.64-71.48-50.9-44.61-94.85-83.13-161.52-88-58.43-4.31-110.95,10-151.88,41.27-37.66,28.81-63.44,71-72.6,118.69l1.39.27c9.1-47.39,34.69-89.24,72.07-117.83,40.65-31.1,92.84-45.27,150.92-41,66.19,4.85,110,43.23,160.68,87.66,25.71,22.53,54.84,48.07,89.79,71.6Zm14.6,0c-38.18-25.09-69.53-52.56-97.19-76.8-52.2-45.73-97.27-85.23-165.68-90.27C206.88,308.16,152.4,323.15,110.12,356,71.21,386.29,45,430.39,36.17,480.21l1.4.24C46.28,431,72.36,387.2,111,357.16c42-32.67,96.15-47.56,156.58-43.07,67.93,5,112.84,44.35,164.84,89.92,27.7,24.27,59.09,51.77,97.35,76.91Zm14.69,0c-41.57-26.67-75.17-56.11-104.81-82.08-53.5-46.88-99.7-87.36-169.85-92.56-63.15-4.71-119.59,11-163.22,45.47-40.16,31.71-66.89,77.76-75.26,129.66l1.4.22c8.31-51.55,34.86-97.28,74.74-128.77,43.35-34.23,99.45-49.85,162.24-45.16,69.67,5.16,115.71,45.5,169,92.2,29.68,26,63.33,55.49,105,82.22Zm14.81,0c-45-28.23-80.91-59.65-112.55-87.37-54.8-48-102.13-89.48-174-94.84-65.5-4.91-123.9,11.53-168.87,47.57C63.19,378.25,36,426.25,28.06,480.23l1.4.2c7.9-53.62,34.9-101.3,76-134.24,44.69-35.8,102.73-52.14,167.88-47.25,71.42,5.31,118.59,46.64,173.2,94.49,31.68,27.75,67.58,59.21,112.72,87.5Zm14.92,0c-48.61-29.78-86.75-63.19-120.4-92.67-56.11-49.15-104.57-91.6-178.21-97.12-67.85-5.1-128.2,12.07-174.51,49.68C59.2,374.25,31.57,424.19,24.05,480.24l1.4.19c7.48-55.69,34.93-105.31,77.28-139.71,46-37.38,106-54.45,173.52-49.36,73.16,5.47,121.46,47.78,177.37,96.77,33.7,29.51,71.88,63,120.6,92.81Zm15,0c-52.25-31.29-92.67-66.69-128.33-97.93-57.42-50.31-107-93.75-182.4-99.42C209,277.06,146.74,295,99.1,334.16c-43.87,36.09-71.93,88-79,146.09l1.4.17C28.53,422.66,56.41,371.11,100,335.25c47.36-39,109.31-56.76,179.15-51.46,74.91,5.63,124.34,48.93,181.57,99.06,35.7,31.28,76.17,66.73,128.53,98.09Zm15.14,0c-56-32.79-98.69-70.2-136.38-103.21C410,325.05,359.28,280.62,282.14,274.79c-72.56-5.51-136.8,13.13-185.76,53.91-45.1,37.56-73.59,91.38-80.24,151.55l1.41.16c6.6-59.81,34.92-113.3,79.73-150.62C146,289.25,209.84,270.72,282,276.21c76.67,5.79,127.23,50.08,185.77,101.36,37.73,33.06,80.49,70.52,136.59,103.37Zm15.25,0c-59.81-34.26-104.83-73.7-144.55-108.5-60-52.6-111.89-98-190.78-104-74.93-5.7-141.1,13.66-191.38,56-46.32,39-75.23,94.79-81.42,157l1.41.14c6.15-61.86,34.89-117.29,80.92-156.08,50-42.12,115.82-61.39,190.37-55.69,78.41,5.95,130.09,51.22,189.94,103.65,39.78,34.85,84.86,74.34,144.79,108.67Zm15.35,0C572,444,524.68,402.53,482.92,366c-61.36-53.75-114.34-100.17-195-106.31-77.27-5.92-145.39,14.19-197,58.14C43.41,358.28,14.08,416,8.37,480.27l1.42.12c5.67-63.9,34.82-121.27,82.08-161.53,51.3-43.71,119-63.7,196-57.8,80.17,6.1,133,52.37,194.15,106C523.8,403.65,571.2,445.17,635,481Zm15.47,0c-67.69-37.14-117.36-80.66-161.19-119-62.66-54.89-116.78-102.3-199.17-108.6C211.2,246,141.15,266.79,88.24,312.33c-48.75,42-78.48,101.62-83.71,168l1.42.11c5.19-65.95,34.75-125.25,83.22-167,52.61-45.3,122.31-66,201.56-59.93C372.65,259.74,426.6,307,489.07,361.73c43.88,38.44,93.62,82,161.44,119.22Zm15.54,0C595,441.16,543,395.6,497.11,355.4c-64-56-119.24-104.45-203.39-110.91-81.64-6.28-153.4,15.09-207.54,61.84C35.82,349.82,5.47,411.59.7,480.28l1.42.1c4.73-68.31,34.92-129.74,85-173,53.85-46.5,125.26-67.77,206.52-61.5,83.68,6.41,138.77,54.68,202.56,110.56,45.94,40.25,98,85.86,169.87,124.49Zm15.64,0c-75.84-39.93-130.2-87.55-178.16-129.56-65.29-57.21-121.69-106.61-207.6-113.22-78.62-6.09-148.83,13.15-203,55.63-49.79,39-83,95.84-93.56,160l1.4.23c10.48-63.83,43.52-120.34,93-159.14,53.93-42.25,123.8-61.39,202.06-55.33,85.44,6.57,141.67,55.83,206.78,112.87C551.3,393.27,605.72,441,681.71,481Zm15.76,0c-80.06-41.3-136.78-91-186.83-134.84-66.6-58.35-124.12-108.75-211.79-115.51-76.58-5.95-145.77,11.75-200.07,51.17-49.78,36.13-85.1,89.77-99.43,151l1.38.32c14.26-60.92,49.37-114.26,98.88-150.2,54-39.21,122.89-56.82,199.13-50.9,40,3.08,75.81,15.13,112.83,37.9,33.42,20.57,64.86,48.11,98.14,77.27,50.11,43.89,106.9,93.65,187.11,135Zm15.86,0c-84.34-42.65-143.44-94.43-195.58-140.11-67.92-59.5-126.58-110.9-216-117.82-75.36-5.87-144,10.76-198.52,48.09A258.84,258.84,0,0,0,39,333.62,266.92,266.92,0,0,0,0,414.64l1.36.4a265.57,265.57,0,0,1,38.73-80.6A257.52,257.52,0,0,1,104.68,271c54.24-37.14,122.58-53.69,197.61-47.85,40.77,3.16,77.34,15.45,115.1,38.68,34.08,21,66.15,49.06,100.09,78.8,52.2,45.73,111.37,97.57,195.87,140.3Zm15.92,0c-88.67-44-150.15-97.85-204.38-145.37-69.25-60.66-129-113.06-220.23-120.14-74.57-5.81-143,10-197.74,45.73C56.7,293.09,19.51,341.51,0,400l1.34.45c19.38-58.13,56.37-106.3,107-139.3,54.52-35.55,122.59-51.29,196.85-45.49,41.57,3.22,78.86,15.76,117.35,39.45,34.76,21.38,67.45,50,102.05,80.34C578.89,383,640.44,436.9,729.29,481Zm16,0c-93.1-45.29-157-101.25-213.31-150.62-70.56-61.82-131.5-115.21-224.44-122.46-74-5.79-142.29,9.35-197.38,43.79-51.14,32-89.44,79-110.77,136.15l1.32.5C22.58,330.24,60.69,283.4,111.56,251.6c54.83-34.27,122.79-49.34,196.52-43.57,42.38,3.3,80.39,16.08,119.62,40.22,35.42,21.8,68.73,51,104,81.89C588.11,379.56,652.05,435.59,745.32,481Zm16.12,0C664.47,433.11,598.2,375,539.73,323.81c-36-31.52-70-61.29-106.13-83.56-40.17-24.72-79.09-37.81-122.51-41.2-73.67-5.79-141.91,8.79-197.34,42.13A276,276,0,0,0,0,374.05l1.32.54A274.51,274.51,0,0,1,114.48,242.4c55.18-33.19,123.13-47.7,196.5-41.94,43.18,3.37,81.91,16.4,121.88,41,36.08,22.2,70,51.93,105.94,83.41C597.34,376.17,663.69,434.3,761.45,481Zm16.21,0c-102.15-47.86-170.83-108-231.43-161.14-36.63-32.1-71.23-62.42-108.08-85.1-40.91-25.18-80.55-38.52-124.78-42-73.43-5.78-141.73,8.31-197.51,40.72A281.26,281.26,0,0,0,.05,362.22l1.3.58A279.78,279.78,0,0,1,117.18,233.42c55.54-32.27,123.55-46.29,196.69-40.54,44,3.44,83.44,16.72,124.15,41.77,36.75,22.62,71.3,52.9,107.89,85C606.58,372.77,675.34,433,777.67,481Zm16.31,0c-106.79-49.11-177.9-111.43-240.64-166.41-37.29-32.68-72.51-63.55-110-86.64-41.64-25.63-82-39.21-127-42.75-37.68-3-74-.9-107.94,6.14A312.49,312.49,0,0,0,119,223.36,286.63,286.63,0,0,0,.06,350.94l1.28.61a285.14,285.14,0,0,1,118.36-127,311.11,311.11,0,0,1,89.53-33.18c33.81-7,70-9.07,107.54-6.11,44.79,3.51,85,17,126.4,42.54,37.41,23,72.59,53.86,109.84,86.49C615.82,369.39,687,431.78,794,481Zm16.38,0c-111.47-50.35-185-114.8-249.9-171.67-37.95-33.26-73.8-64.67-112-88.18-42.39-26.09-83.47-39.92-129.31-43.53-37.66-3-74-1-108,5.83a319.37,319.37,0,0,0-90.38,32.54A292,292,0,0,0,.07,340.07l1.26.64A290.68,290.68,0,0,1,122.09,215.92c57.11-31.19,123.58-44,197.57-38.19,45.61,3.59,86.49,17.35,128.67,43.32,38.08,23.44,73.89,54.82,111.79,88C625.08,366,698.71,430.54,810.38,481Zm16.49,0C711.21,428.11,635.22,361.52,568.18,302.76,529.56,268.92,493.09,237,454.24,213c-43.12-26.55-84.93-40.62-131.57-44.31-74.27-5.87-141.2,6.7-199,37.36A297.62,297.62,0,0,0,.07,329.53l1.25.66A296.23,296.23,0,0,1,124.38,207.34c57.51-30.53,124.19-43.05,198.17-37.19,46.41,3.66,88,17.67,130.94,44.1,38.75,23.85,75.18,55.78,113.75,89.58C634.36,362.65,710.44,429.32,826.87,481Zm16.52,0c-121-52.77-199.48-121.52-268.68-182.17C536,263.09,498.92,230.57,459.4,206.24c-43.86-27-86.39-41.32-133.83-45.08-74.32-5.89-141.5,6.38-199.66,36.45A303.09,303.09,0,0,0,.08,319.31l1.24.69A301.62,301.62,0,0,1,126.56,198.87c57.92-30,124.84-42.16,198.89-36.29,47.22,3.73,89.55,18,133.21,44.87,39.41,24.27,76.47,56.74,115.7,91.13,69.28,60.72,147.8,129.54,269,182.4Zm15.9-.32C734.35,425.44,653.62,354.68,582.4,292.25c-39.94-35-77.66-68.07-117.84-92.81-44.6-27.46-87.85-42-136.1-45.86-74.41-5.91-141.85,6.08-200.42,35.62A308.71,308.71,0,0,0,.09,309.3l1.22.72A307.25,307.25,0,0,1,128.68,190.47C187,161,254.2,149.11,328.34,155c48,3.8,91.07,18.31,135.47,45.65,40.09,24.68,77.76,57.7,117.65,92.67,71.31,62.49,152.13,133.33,277.85,187.34Zm0-7.26C738.89,417.93,659.53,348.37,589.51,287c-40.59-35.58-78.94-69.19-119.79-94.35-45.34-27.91-89.3-42.73-138.36-46.63-74.55-5.93-142.26,5.8-201.26,34.86A314.24,314.24,0,0,0,.09,299.52l1.21.74A313,313,0,0,1,130.73,182.14c58.76-28.95,126.23-40.63,200.51-34.71,48.83,3.87,92.6,18.63,137.74,46.42,40.75,25.09,79,58.66,119.6,94.21C658.67,349.5,738.12,419.14,859.3,473.39Zm0-7.48C743.35,410.34,665.41,342,596.64,281.74c-41.26-36.17-80.23-70.33-121.75-95.9-46.08-28.37-90.77-43.44-140.64-47.41-74.72-6-142.73,5.54-202.15,34.16A319.83,319.83,0,0,0,.1,289.93l1.2.76A318.57,318.57,0,0,1,132.71,173.86c59.19-28.51,127-40,201.42-34,49.64,4,94.13,19,140,47.2,41.42,25.5,80.35,59.63,121.57,95.76,68.83,60.34,146.86,128.73,263.58,183.09Zm0-7.67C747.71,402.69,671.23,335.64,603.75,276.49,561.83,239.74,522.23,205,480.05,179c-46.82-28.83-92.22-44.14-142.9-48.18-144.46-11.53-267.31,43-337,149.64l1.18.78c69.45-106.19,191.82-160.5,335.74-149,50.45,4,95.66,19.26,142.28,48,42.08,25.92,81.63,60.59,123.51,97.3,67.54,59.22,144.1,126.33,256.46,180.68Zm0-7.88C752,395,677,329.22,610.87,271.23c-42.58-37.33-82.8-72.59-125.66-99C437.66,143,391.53,127.4,340,123.28c-75.13-6-143.8,5.07-204.09,32.91A331.39,331.39,0,0,0,.11,271.22l1.18.8A329.89,329.89,0,0,1,136.55,157.47C196.62,129.74,265,118.71,339.92,124.7c51.26,4.09,97.19,19.58,144.55,48.75C527.22,199.78,567.4,235,609.94,272.3c66.21,58,141.25,123.83,249.33,178Zm0-8.07C756.18,387.14,682.77,322.77,618,266c-43.25-37.92-84.1-73.73-127.62-100.54-48.3-29.75-95.15-45.55-147.45-49.74-75.38-6-144.38,4.84-205.11,32.33a337,337,0,0,0-137.7,114l1.16.81A335.53,335.53,0,0,1,138.41,149.34c60.5-27.4,129.27-38.23,204.4-32.21,52.07,4.16,98.73,19.9,146.82,49.53,43.42,26.74,84.23,62.52,127.43,100.39,64.83,56.84,138.31,121.27,242.2,175.21Zm0-8.26c-99.64-53.49-171.45-116.46-234.81-172-43.91-38.5-85.38-74.87-129.57-102.09-49-30.2-96.61-46.25-149.71-50.51-75.63-6.06-145,4.64-206.17,31.81A342.84,342.84,0,0,0,.12,253l1.15.82a341.48,341.48,0,0,1,139-112.6c60.95-27.07,130.08-37.73,205.47-31.68,52.88,4.23,100.25,20.22,149.09,50.3,44.09,27.16,85.51,63.48,129.38,101.94C687.59,317.4,759.47,380.43,859.25,434Zm0-8.45c-95.61-53-165.78-114.52-227.69-168.8-44.57-39.09-86.67-76-131.53-103.64-49.78-30.66-98.07-47-152-51.29-75.91-6.1-145.64,4.43-207.26,31.3A348.6,348.6,0,0,0,.13,244.06l1.14.84A347.2,347.2,0,0,1,142,133.16c61.4-26.78,130.9-37.27,206.57-31.18,53.69,4.31,101.79,20.54,151.37,51.08,44.76,27.57,86.81,64.45,131.34,103.5,62,54.33,132.19,115.91,227.94,169Zm0-8.64c-91.69-52.39-160.17-112.44-220.59-165.43-45.23-39.66-88-77.12-133.48-105.17C455.35,113.93,406.34,97.39,351.62,93c-76.2-6.13-146.31,4.24-208.38,30.84C86.28,148.23,36.79,186.75.13,235.21l1.13.86c37-49,85-86.29,142.54-110.95,61.85-26.5,131.73-36.84,207.7-30.72,54.49,4.38,103.31,20.86,153.63,51.86,45.42,28,88.1,65.41,133.28,105,60.47,53,129,113.13,220.83,165.59Zm0-8.81C772.12,355.17,705.37,296.63,646.49,245c-45.9-40.25-89.25-78.26-135.45-106.72-51.26-31.58-101-48.37-156.53-52.85-76.51-6.16-147,4.06-209.52,30.4C86.77,140.34,38,177.56.14,226.46l1.12.87C39,178.63,87.55,141.55,145.54,117.12c62.3-26.25,132.57-36.44,208.85-30.29C409.7,91.28,459.24,108,510.3,139.46c46.09,28.4,89.4,66.38,135.25,106.59,58.94,51.69,125.74,110.27,213.68,162Zm0-9C775.91,347,710.93,290,653.61,239.74c-46.56-40.84-90.53-79.41-137.4-108.28-52-32-102.46-49.08-158.8-53.63-76.84-6.2-147.73,3.89-210.7,30-58.66,24.31-108,61.3-146.57,110l1.11.88c38.45-48.46,87.57-85.32,146-109.54,62.76-26,133.43-36.06,210-29.87,56.12,4.52,106.38,21.5,158.18,53.41,46.76,28.82,90.69,67.35,137.2,108.14C710,291.12,775.07,348.15,859.22,399.08Zm0-9.16c-80.35-49.94-143.51-105.34-199.23-154.22C613.51,193.07,568.91,154,521.38,124.66,468.64,92.17,417.45,74.88,360.3,70.26,283.13,64,211.84,74,148.42,99.85,89.31,124,39.43,160.74.15,209.18l1.1.89C40.38,161.82,90.07,125.18,149,101.16c63.22-25.78,134.29-35.7,211.23-29.48,56.93,4.6,107.91,21.82,160.45,54.19,47.43,29.22,92,68.3,139.16,109.68,55.77,48.91,119,104.35,199.42,154.35Zm0-9.32c-76.71-48.93-138-102.7-192.1-150.14-47.89-42-93.12-81.67-141.32-111.38C473.07,84.91,421.16,67.37,363.2,62.68,285.68,56.41,214,66.24,150.11,91.89c-59.55,23.92-110,60.5-150,108.72l1.1.9c39.8-48,90.06-84.47,149.39-108.3C214.32,67.64,285.79,57.84,363.08,64.1c57.74,4.67,109.44,22.13,162.73,55,48.1,29.64,93.28,69.27,141.12,111.24,54.13,47.47,115.47,101.28,192.28,150.27Zm0-9.47C786.81,322.08,727.39,270,675,224c-48.54-42.59-94.4-82.81-143.26-112.92-54.22-33.41-106.85-51.19-165.62-56-77.87-6.3-150,3.41-214.31,28.87-60,23.74-111,60.14-151.62,108.17l1.08.92C41.7,145.2,92.52,108.94,152.3,85.29c64.13-25.38,136-35.06,213.67-28.77,58.55,4.74,111,22.45,165,55.75C579.73,142.32,625.54,182.5,674,225c52.45,46,111.91,98.17,185.16,146Zm0-9.63c-69.68-46.63-127.16-97.06-177.87-141.54-49.21-43.17-95.69-83.94-145.23-114.47-55-33.88-108.32-51.9-167.9-56.74C217.45,35.24,86.46,83.59.16,183.7l1.08.92C87.24,84.87,217.79,36.69,368.86,49c59.36,4.81,112.51,22.77,167.28,56.52,49.43,30.47,95.87,71.21,145,114.34,50.75,44.51,108.26,95,178,141.65Zm0-9.76c-66.27-45.36-121.78-94.06-170.75-137-49.87-43.75-97-85.07-147.19-116C486.35,63.14,432.28,44.86,371.88,40,219.71,27.6,87.7,75.67.17,175.32l1.06.94C88.46,77,220.05,29,371.76,41.37c60.17,4.88,114,23.09,169.55,57.31,50.1,30.88,97.17,72.17,147,115.88,49,43,104.55,91.72,170.89,137.13Zm0-9.92c-62.93-44-114.12-88.91-163.63-132.35C645.83,163.92,598.1,122,547.22,90.68,490.78,55.88,436,37.36,374.77,32.38,222,20,88.92,67.76.17,167l1.06.94C89.67,69.05,222.29,21.41,374.65,33.8c61,5,115.58,23.41,171.83,58.08,50.77,31.3,98.46,73.14,149,117.44,49.53,43.46,100.75,88.4,163.74,132.44Zm0-10.05C800.34,288,751.09,244.77,703.47,203c-51.19-44.92-99.55-87.35-151.09-119.12-57.18-35.25-112.7-54-174.71-59.07C224.18,12.31,90.12,59.86.17,158.71l1.05,1C90.86,61.15,224.51,13.75,377.55,26.22c61.78,5,117.1,23.73,174.09,58.86,51.43,31.71,99.75,74.1,150.9,119,47.65,41.81,96.92,85,156.64,127.66Zm0-10.18C803.56,279.31,756.3,237.84,710.6,197.74c-51.86-45.5-100.84-88.48-153.05-120.66-57.93-35.71-114.17-54.72-177-59.85-79.75-6.49-154,2.69-220.63,27.32-62.25,23-116,58.64-159.75,105.91l1,1c43.6-47.11,97.16-82.62,159.2-105.54,66.45-24.56,140.48-33.72,220-27.23C443,23.75,499.08,42.7,556.8,78.29c52.11,32.12,101.05,75.06,152.86,120.52,45.73,40.12,93,81.6,149.51,122.7Zm0-10.3c-53.3-39.49-98.53-79.18-142.28-117.57-52.52-46.09-102.13-89.62-155-122.22C504.06,34.11,447.09,14.85,383.46,9.65,303.3,3.11,228.63,12.21,161.51,36.71,98.8,59.59,44.52,95.1.18,142.27l1,1C45.4,96.24,99.5,60.84,162,38c66.92-24.42,141.39-33.5,221.34-27C446.75,16.24,503.51,35.44,562,71.49c52.77,32.53,102.34,76,154.81,122.07,43.77,38.41,89,78.13,142.38,117.65Zm0-10.42c-50.2-37.84-93.38-75.73-135.14-112.38-53.19-46.67-103.43-90.76-157-123.78C508.49,26.86,450.8,7.35,386.35,2.08,305.79-4.5,230.68,4.52,163.09,28.88,99.93,51.64,45.12,87,.19,134.08l1,1C46,88.17,100.62,52.9,163.57,30.21,231,5.92,305.88-3.07,386.23,3.5c64.22,5.24,121.71,24.69,180.92,61.2,53.45,33,103.65,77,156.79,123.64,41.78,36.66,85,74.57,135.22,112.45Z"/></g></g></svg>